<svg xmlns="http://www.w3.org/2000/svg" width="32" height="32" viewBox="0 0 32 32" fill="none"><path fill="#2a212c" d="M4 2H2v1h2zM16 2h-1v1h1zM4 3H2v1h2zM17 3h-3v1h3zM5 4H2v1h3zM17 4h-5v1h5zM3 5H2v1h1zM6 5H4v1h2zM14 5h-2v1h2zM18 5h-2v1h2zM3 6H2v1h1zM6 6H5v1h1zM12 6h-2v1h2zM18 6h-3v1h3zM3 7H2v1h1zM12 7H5v1h7zM18 7h-2v1h2zM3 8H2v1h1zM15 8H5v1h10zM18 8h-2v1h2zM3 9H2v1h1zM20 9H5v1h15zM30 9h-3v1h3zM3 10H2v1h1zM30 10H5v1h25zM3 11H2v1h1zM27 11H5v1h22zM30 11h-2v1h2zM3 12H2v1h1zM24 12H5v1h19zM29 12h-2v1h2zM3 13H2v1h1zM10 13H5v1h5zM17 13h-5v1h5zM24 13h-6v1h6zM29 13h-2v1h2zM3 14H2v1h1zM10 14H5v1h5zM13 14h-2v1h2zM17 14h-3v1h3zM25 14h-7v1h7zM29 14h-2v1h2zM3 15H2v1h1zM12 15H5v1h7zM16 15h-3v1h3zM25 15h-7v1h7zM28 15h-2v1h2zM3 16H2v1h1zM7 16H5v1h2zM10 16H8v1h2zM15 16h-4v1h4zM28 16H17v1h11zM3 17H2v1h1zM8 17H5v1h3zM27 17H17v1h10zM3 18H2v1h1zM7 18H5v1h2zM9 18H8v1h1zM15 18h-1v1h1zM19 18h-2v1h2zM26 18h-6v1h6zM3 19H2v1h1zM7 19H5v1h2zM16 19h-2v1h2zM21 19h-4v1h4zM26 19h-4v1h4zM3 20H2v1h1zM7 20H5v1h2zM12 20h-1v1h1zM16 20h-2v1h2zM21 20h-3v1h3zM26 20h-4v1h4zM3 21H2v1h1zM7 21H5v1h2zM15 21h-3v1h3zM26 21h-7v1h7zM3 22H2v1h1zM7 22H5v1h2zM16 22h-2v1h2zM25 22h-6v1h6zM3 23H2v1h1zM7 23H5v1h2zM26 23h-6v1h6zM3 24H2v1h1zM7 24H5v1h2zM21 24h-2v1h2zM24 24h-2v1h2zM28 24h-2v1h2zM3 25H2v1h1zM7 25H5v1h2zM23 25h-4v1h4zM25 25h-1v1h1zM3 26H2v1h1zM7 26H5v1h2zM21 26h-5v1h5zM23 26h-1v1h1zM26 26h-1v1h1zM3 27H2v1h1zM7 27H5v1h2zM18 27h-5v1h5zM24 27h-2v1h2zM3 28H2v1h1zM17 28H5v1h12zM3 29H2v1h1zM11 29H4v1h7zM17 29h-4v1h4z"/></svg>
