<svg width="20" height="20" viewBox="0 0 20 20" fill="none" xmlns="http://www.w3.org/2000/svg">
<g clip-path="url(#clip0_23_2610)">
<path d="M6.66663 6.66675V4.33341C6.66663 3.39999 6.66663 2.93328 6.84828 2.57676C7.00807 2.26316 7.26304 2.00819 7.57664 1.8484C7.93316 1.66675 8.39987 1.66675 9.33329 1.66675H15.6666C16.6 1.66675 17.0668 1.66675 17.4233 1.8484C17.7369 2.00819 17.9918 2.26316 18.1516 2.57676C18.3333 2.93328 18.3333 3.39999 18.3333 4.33341V10.6667C18.3333 11.6002 18.3333 12.0669 18.1516 12.4234C17.9918 12.737 17.7369 12.992 17.4233 13.1518C17.0668 13.3334 16.6 13.3334 15.6666 13.3334H13.3333M4.33329 18.3334H10.6666C11.6 18.3334 12.0668 18.3334 12.4233 18.1518C12.7369 17.992 12.9918 17.737 13.1516 17.4234C13.3333 17.0669 13.3333 16.6002 13.3333 15.6667V9.33341C13.3333 8.39999 13.3333 7.93328 13.1516 7.57676C12.9918 7.26316 12.7369 7.00819 12.4233 6.8484C12.0668 6.66675 11.6 6.66675 10.6666 6.66675H4.33329C3.39987 6.66675 2.93316 6.66675 2.57664 6.8484C2.26304 7.00819 2.00807 7.26316 1.84828 7.57676C1.66663 7.93328 1.66663 8.39999 1.66663 9.33341V15.6667C1.66663 16.6002 1.66663 17.0669 1.84828 17.4234C2.00807 17.737 2.26304 17.992 2.57664 18.1518C2.93316 18.3334 3.39987 18.3334 4.33329 18.3334Z" stroke="#475467" stroke-width="1.66667" stroke-linecap="round" stroke-linejoin="round"/>
</g>
<defs>
<clipPath id="clip0_23_2610">
<rect width="20" height="20" fill="white"/>
</clipPath>
</defs>
</svg>
