<svg width="20" height="20" viewBox="0 0 20 20" fill="none" xmlns="http://www.w3.org/2000/svg">
<path d="M14.1667 9.16683V7.50016C14.1667 5.19898 12.3012 3.3335 10 3.3335C7.69885 3.3335 5.83337 5.19898 5.83337 7.50016V9.16683M5.50004 17.5002H14.5C15.4334 17.5002 15.9001 17.5002 16.2566 17.3185C16.5702 17.1587 16.8252 16.9037 16.985 16.5901C17.1667 16.2337 17.1667 15.7669 17.1667 14.8335V11.8335C17.1667 10.9001 17.1667 10.4334 16.985 10.0769C16.8252 9.76326 16.5702 9.5083 16.2566 9.34851C15.9001 9.16683 15.4334 9.16683 14.5 9.16683H5.50004C4.56662 9.16683 4.0999 9.16683 3.74339 9.34851C3.42978 9.5083 3.17482 9.76326 3.01503 10.0769C2.83337 10.4334 2.83337 10.9001 2.83337 11.8335V14.8335C2.83337 15.7669 2.83337 16.2337 3.01503 16.5901C3.17482 16.9037 3.42978 17.1587 3.74339 17.3185C4.0999 17.5002 4.56662 17.5002 5.50004 17.5002Z" stroke="#344054" stroke-width="1.66667" stroke-linecap="round" stroke-linejoin="round"/>
</svg>
